<?xml version="1.0" encoding="UTF-8"?>
<svg id="Layer_2" data-name="Layer 2" xmlns="http://www.w3.org/2000/svg" viewBox="0 0 75.43 75.43">
  <defs>
    <style>
      .cls-1 {
        fill: #30e47b;
      }
    </style>
  </defs>
  <g id="Layer_1-2" data-name="Layer 1">
    <rect width="75.43" height="75.43" rx="15.89" ry="15.89"/>
    <path class="cls-1" d="M59.95,45.4c-3.2-3.41-6.76-6.73-10.74-10.02,2.89.57,5.75,1.31,8.55,2.25.33.11.64-.22.49-.53-.7-1.56-1.57-3.08-2.57-4.52-.21-.31-.53-.53-.89-.62-2.91-.77-5.86-1.36-8.83-1.77l3.07-4.36c.15-.21.1-.51-.11-.66l-1.95-1.37s-.03-.02-.04-.03c-.01-.01-.03-.02-.04-.03l-1.69-1.19c-.21-.15-.51-.1-.66.11l-3.17,4.51h0c-1.41-2.78-2.96-5.52-4.63-8.18-.06-.11-.17-.19-.3-.22-1.1-.3-2.22-.51-3.33-.66-.59-.08-1.17-.13-1.73-.17-.35-.02-.58.36-.38.66,1.47,2.16,2.85,4.39,4.14,6.66-3.83-2.26-7.82-4.24-11.95-5.9-.13-.05-.28-.05-.4,0-1.44.65-2.7,1.51-3.78,2.55-.26.25-.15.7.19.82,4.93,1.81,9.65,4.09,14.14,6.8-6.04.22-12.02,1.18-17.9,2.89-.22.07-.37.27-.36.5.06,1.02.21,2.09.46,3.17.03.17.08.35.11.52.06.27.34.43.61.35,6.63-1.97,13.41-2.92,20.23-2.87h0l-11.88,16.89c-.15.21-.1.51.11.66l3.73,2.62c.21.15.51.1.66-.11l11.82-16.8c2.84,7.14,4.83,14.61,5.94,22.28.04.26.27.46.54.43,1.29-.13,2.52-.38,3.65-.75.23-.08.37-.31.33-.55-.99-6.69-2.61-13.23-4.86-19.55,6.97,5.16,11.41,10.56,12.58,12.01.14.17.41.12.48-.08.49-1.42.77-2.97.8-4.63,0-.41-.14-.82-.43-1.12Z"/>
  </g>
</svg>